<svg width="22" height="22" viewBox="0 0 22 22" fill="none" xmlns="http://www.w3.org/2000/svg">
<path fill-rule="evenodd" clip-rule="evenodd" d="M15 5.75C14.3096 5.75 13.75 6.30964 13.75 7C13.75 7.69036 14.3096 8.25 15 8.25C15.6904 8.25 16.25 7.69036 16.25 7C16.25 6.30964 15.6904 5.75 15 5.75ZM12.25 7C12.25 5.48122 13.4812 4.25 15 4.25C16.5188 4.25 17.75 5.48122 17.75 7C17.75 8.51878 16.5188 9.75 15 9.75C13.4812 9.75 12.25 8.51878 12.25 7Z" fill="#C0C0C0"/>
<path fill-rule="evenodd" clip-rule="evenodd" d="M10.9426 0.25H11.0574C13.3658 0.249987 15.1748 0.249977 16.5863 0.439747C18.031 0.633986 19.1711 1.03933 20.0659 1.93414C20.9607 2.82895 21.366 3.96897 21.5603 5.41371C21.75 6.82519 21.75 8.63423 21.75 10.9426V11.0574C21.75 13.3658 21.75 15.1748 21.5603 16.5863C21.366 18.031 20.9607 19.1711 20.0659 20.0659C19.1711 20.9607 18.031 21.366 16.5863 21.5603C15.1748 21.75 13.3658 21.75 11.0574 21.75H10.9426C8.63423 21.75 6.82519 21.75 5.41371 21.5603C3.96897 21.366 2.82895 20.9607 1.93414 20.0659C1.03933 19.1711 0.633986 18.031 0.439747 16.5863C0.249977 15.1748 0.249987 13.3658 0.25 11.0574V10.9426C0.249987 8.63423 0.249977 6.82519 0.439747 5.41371C0.633986 3.96897 1.03933 2.82895 1.93414 1.93414C2.82895 1.03933 3.96897 0.633986 5.41371 0.439747C6.82519 0.249977 8.63423 0.249987 10.9426 0.25ZM2.9948 19.0052C2.42514 18.4355 2.09825 17.6648 1.92637 16.3864C1.77289 15.2449 1.75296 13.7885 1.75038 11.8401L3.24546 10.5319C3.85958 9.9946 4.78515 10.0254 5.36216 10.6024L9.65188 14.8922C10.5968 15.8371 12.0843 15.9659 13.1776 15.1975L13.4758 14.988C14.334 14.3849 15.4951 14.4547 16.2747 15.1564L19.4983 18.0576C19.5334 18.0892 19.5706 18.1168 19.6095 18.1406C19.4478 18.4815 19.2487 18.7617 19.0052 19.0052C18.4355 19.5749 17.6648 19.9018 16.3864 20.0736C15.0864 20.2484 13.3782 20.25 11 20.25C8.62177 20.25 6.91356 20.2484 5.61358 20.0736C4.33517 19.9018 3.56445 19.5749 2.9948 19.0052ZM5.61358 1.92637C4.33517 2.09825 3.56445 2.42514 2.9948 2.9948C2.42514 3.56445 2.09825 4.33517 1.92637 5.61358C1.78124 6.69307 1.75552 8.05407 1.75098 9.84647L2.25771 9.40308C3.46613 8.34572 5.28741 8.40636 6.42282 9.54177L10.7125 13.8315C11.1421 14.261 11.8182 14.3196 12.3152 13.9703L12.6134 13.7607C14.0437 12.7555 15.9788 12.872 17.2782 14.0415L20.0522 16.5381C20.0596 16.4883 20.0667 16.4378 20.0736 16.3864C20.2484 15.0864 20.25 13.3782 20.25 11C20.25 8.62177 20.2484 6.91356 20.0736 5.61358C19.9018 4.33517 19.5749 3.56445 19.0052 2.9948C18.4355 2.42514 17.6648 2.09825 16.3864 1.92637C15.0864 1.75159 13.3782 1.75 11 1.75C8.62177 1.75 6.91356 1.75159 5.61358 1.92637Z" fill="#C0C0C0"/>
</svg>
