<svg width="22" height="20" viewBox="0 0 22 20" fill="none" xmlns="http://www.w3.org/2000/svg">
<rect width="22" height="20" rx="3" fill="white"/>
<path d="M4.75231 9V4.63636H6.49947C6.82049 4.63636 7.08825 4.68395 7.30273 4.77912C7.51722 4.87429 7.67844 5.00639 7.7864 5.17543C7.89435 5.34304 7.94833 5.53622 7.94833 5.75497C7.94833 5.92543 7.91424 6.07528 7.84606 6.20455C7.77788 6.33239 7.68413 6.4375 7.56481 6.51989C7.44691 6.60085 7.31197 6.65838 7.15998 6.69247V6.73509C7.32617 6.74219 7.48171 6.78906 7.6266 6.87571C7.7729 6.96236 7.89151 7.08381 7.98242 7.24006C8.07333 7.39489 8.11879 7.57955 8.11879 7.79403C8.11879 8.02557 8.06126 8.23224 7.9462 8.41406C7.83256 8.59446 7.66424 8.73722 7.44123 8.84233C7.21822 8.94744 6.94336 9 6.61665 9H4.75231ZM5.67489 8.24574H6.42702C6.68413 8.24574 6.87163 8.19673 6.98952 8.09872C7.10742 7.99929 7.16637 7.86719 7.16637 7.70241C7.16637 7.58168 7.13725 7.47514 7.07901 7.38281C7.02077 7.29048 6.93768 7.21804 6.82972 7.16548C6.72319 7.11293 6.59606 7.08665 6.44833 7.08665H5.67489V8.24574ZM5.67489 6.46236H6.35884C6.48526 6.46236 6.59748 6.44034 6.69549 6.39631C6.79492 6.35085 6.87305 6.28693 6.92987 6.20455C6.9881 6.12216 7.01722 6.02344 7.01722 5.90838C7.01722 5.75071 6.96112 5.62358 6.8489 5.52699C6.7381 5.4304 6.58043 5.3821 6.37589 5.3821H5.67489V6.46236ZM10.1935 9.06392C9.85689 9.06392 9.56712 8.99574 9.32422 8.85938C9.08274 8.72159 8.89666 8.52699 8.76598 8.27557C8.6353 8.02273 8.56996 7.72372 8.56996 7.37855C8.56996 7.0419 8.6353 6.74645 8.76598 6.49219C8.89666 6.23793 9.08061 6.03977 9.31783 5.89773C9.55646 5.75568 9.83629 5.68466 10.1573 5.68466C10.3732 5.68466 10.5742 5.71946 10.7603 5.78906C10.9478 5.85724 11.1112 5.96023 11.2504 6.09801C11.391 6.2358 11.5004 6.40909 11.5785 6.6179C11.6566 6.82528 11.6957 7.06818 11.6957 7.34659V7.59588H8.93217V7.03338H10.8413C10.8413 6.9027 10.8129 6.78693 10.756 6.68608C10.6992 6.58523 10.6204 6.50639 10.5195 6.44957C10.4201 6.39134 10.3043 6.36222 10.1722 6.36222C10.0344 6.36222 9.91229 6.39418 9.80575 6.4581C9.70064 6.5206 9.61825 6.60511 9.55859 6.71165C9.49893 6.81676 9.46839 6.93395 9.46697 7.06321V7.59801C9.46697 7.75994 9.4968 7.89986 9.55646 8.01776C9.61754 8.13565 9.70348 8.22656 9.81428 8.29048C9.92507 8.3544 10.0565 8.38636 10.2085 8.38636C10.3093 8.38636 10.4016 8.37216 10.4854 8.34375C10.5692 8.31534 10.641 8.27273 10.7006 8.21591C10.7603 8.15909 10.8058 8.08949 10.837 8.0071L11.6765 8.0625C11.6339 8.2642 11.5465 8.44034 11.4144 8.59091C11.2837 8.74006 11.1147 8.85653 10.9073 8.94034C10.7013 9.02273 10.4634 9.06392 10.1935 9.06392ZM15.011 6.66051L14.18 6.71165C14.1658 6.64062 14.1353 6.5767 14.0884 6.51989C14.0415 6.46165 13.9798 6.41548 13.9031 6.38139C13.8278 6.34588 13.7376 6.32812 13.6325 6.32812C13.4918 6.32812 13.3732 6.35795 13.2766 6.41761C13.18 6.47585 13.1317 6.55398 13.1317 6.65199C13.1317 6.73011 13.163 6.79616 13.2255 6.85014C13.288 6.90412 13.3952 6.94744 13.5472 6.98011L14.1396 7.09943C14.4577 7.16477 14.695 7.26989 14.8512 7.41477C15.0075 7.55966 15.0856 7.75 15.0856 7.9858C15.0856 8.20028 15.0224 8.38849 14.896 8.55043C14.771 8.71236 14.5991 8.83878 14.3803 8.92969C14.163 9.01918 13.9123 9.06392 13.6282 9.06392C13.195 9.06392 12.8498 8.97372 12.5927 8.79332C12.337 8.61151 12.1871 8.36435 12.1431 8.05185L13.0359 8.00497C13.0629 8.13707 13.1282 8.23793 13.2319 8.30753C13.3356 8.37571 13.4684 8.4098 13.6303 8.4098C13.7894 8.4098 13.9173 8.37926 14.0138 8.31818C14.1119 8.25568 14.1616 8.17543 14.163 8.07741C14.1616 7.99503 14.1268 7.92756 14.0586 7.875C13.9904 7.82102 13.8853 7.77983 13.7433 7.75142L13.1765 7.63849C12.8569 7.57457 12.619 7.46378 12.4627 7.30611C12.3079 7.14844 12.2305 6.94744 12.2305 6.70312C12.2305 6.4929 12.2873 6.31179 12.4009 6.1598C12.516 6.00781 12.6772 5.89062 12.8846 5.80824C13.0934 5.72585 13.3377 5.68466 13.6175 5.68466C14.0309 5.68466 14.3562 5.77202 14.5934 5.94673C14.832 6.12145 14.9712 6.35937 15.011 6.66051ZM17.3979 5.72727V6.40909H15.427V5.72727H17.3979ZM15.8745 4.94318H16.7821V7.99432C16.7821 8.07812 16.7949 8.14347 16.8205 8.19034C16.8461 8.2358 16.8816 8.26776 16.927 8.28622C16.9739 8.30469 17.0279 8.31392 17.089 8.31392C17.1316 8.31392 17.1742 8.31037 17.2168 8.30327C17.2594 8.29474 17.2921 8.28835 17.3148 8.28409L17.4576 8.95952C17.4121 8.97372 17.3482 8.99006 17.2658 9.00852C17.1834 9.02841 17.0833 9.04048 16.9654 9.04474C16.7466 9.05327 16.5549 9.02415 16.3901 8.95739C16.2267 8.89062 16.0996 8.78693 16.0087 8.64631C15.9178 8.50568 15.873 8.32812 15.8745 8.11364V4.94318ZM3.83825 16V11.6364H5.55984C5.8908 11.6364 6.17276 11.6996 6.40572 11.826C6.63867 11.951 6.81623 12.125 6.93839 12.348C7.06197 12.5696 7.12376 12.8253 7.12376 13.1151C7.12376 13.4048 7.06126 13.6605 6.93626 13.8821C6.81126 14.1037 6.63015 14.2763 6.39293 14.3999C6.15714 14.5234 5.87163 14.5852 5.5364 14.5852H4.4391V13.8459H5.38725C5.56481 13.8459 5.71112 13.8153 5.82617 13.7543C5.94265 13.6918 6.0293 13.6058 6.08612 13.4964C6.14435 13.3857 6.17347 13.2585 6.17347 13.1151C6.17347 12.9702 6.14435 12.8437 6.08612 12.7358C6.0293 12.6264 5.94265 12.5419 5.82617 12.4822C5.70969 12.4212 5.56197 12.3906 5.38299 12.3906H4.76083V16H3.83825ZM7.70597 16V12.7273H8.58594V13.2983H8.62003C8.67969 13.0952 8.77983 12.9418 8.92045 12.8381C9.06108 12.733 9.22301 12.6804 9.40625 12.6804C9.4517 12.6804 9.50071 12.6832 9.55327 12.6889C9.60582 12.6946 9.65199 12.7024 9.69176 12.7124V13.5178C9.64915 13.505 9.5902 13.4936 9.51491 13.4837C9.43963 13.4737 9.37074 13.4688 9.30824 13.4688C9.17472 13.4688 9.0554 13.4979 8.95028 13.5561C8.84659 13.6129 8.7642 13.6925 8.70312 13.7947C8.64347 13.897 8.61364 14.0149 8.61364 14.1484V16H7.70597ZM10.161 16V12.7273H11.0687V16H10.161ZM10.617 12.3054C10.4821 12.3054 10.3663 12.2607 10.2697 12.1712C10.1745 12.0803 10.127 11.9716 10.127 11.8452C10.127 11.7202 10.1745 11.6129 10.2697 11.5234C10.3663 11.4325 10.4821 11.3871 10.617 11.3871C10.752 11.3871 10.867 11.4325 10.9622 11.5234C11.0588 11.6129 11.1071 11.7202 11.1071 11.8452C11.1071 11.9716 11.0588 12.0803 10.9622 12.1712C10.867 12.2607 10.752 12.3054 10.617 12.3054ZM13.2745 16.0639C12.9393 16.0639 12.6509 15.9929 12.4094 15.8509C12.1694 15.7074 11.9847 15.5085 11.8555 15.2543C11.7276 15 11.6637 14.7074 11.6637 14.3764C11.6637 14.0412 11.7283 13.7472 11.8576 13.4943C11.9883 13.2401 12.1737 13.0419 12.4137 12.8999C12.6538 12.7564 12.9393 12.6847 13.2702 12.6847C13.5558 12.6847 13.8058 12.7365 14.0202 12.8402C14.2347 12.9439 14.4045 13.0895 14.5295 13.277C14.6545 13.4645 14.7234 13.6847 14.7362 13.9375H13.8796C13.8555 13.7741 13.7915 13.6428 13.6879 13.5433C13.5856 13.4425 13.4513 13.392 13.2852 13.392C13.1445 13.392 13.0217 13.4304 12.9165 13.5071C12.8129 13.5824 12.7319 13.6925 12.6737 13.8374C12.6154 13.9822 12.5863 14.1577 12.5863 14.3636C12.5863 14.5724 12.6147 14.75 12.6715 14.8963C12.7298 15.0426 12.8114 15.1541 12.9165 15.2308C13.0217 15.3075 13.1445 15.3459 13.2852 15.3459C13.3888 15.3459 13.4819 15.3246 13.5643 15.282C13.6481 15.2393 13.717 15.1776 13.771 15.0966C13.8263 15.0142 13.8626 14.9155 13.8796 14.8004H14.7362C14.7219 15.0504 14.6538 15.2706 14.5316 15.4609C14.4109 15.6499 14.244 15.7976 14.0309 15.9041C13.8178 16.0107 13.5657 16.0639 13.2745 16.0639ZM16.8088 16.0639C16.4721 16.0639 16.1824 15.9957 15.9395 15.8594C15.698 15.7216 15.5119 15.527 15.3812 15.2756C15.2505 15.0227 15.1852 14.7237 15.1852 14.3786C15.1852 14.0419 15.2505 13.7464 15.3812 13.4922C15.5119 13.2379 15.6958 13.0398 15.9331 12.8977C16.1717 12.7557 16.4515 12.6847 16.7725 12.6847C16.9885 12.6847 17.1895 12.7195 17.3755 12.7891C17.563 12.8572 17.7264 12.9602 17.8656 13.098C18.0062 13.2358 18.1156 13.4091 18.1937 13.6179C18.2718 13.8253 18.3109 14.0682 18.3109 14.3466V14.5959H15.5474V14.0334H17.4565C17.4565 13.9027 17.4281 13.7869 17.3713 13.6861C17.3145 13.5852 17.2356 13.5064 17.1348 13.4496C17.0353 13.3913 16.9196 13.3622 16.7875 13.3622C16.6497 13.3622 16.5275 13.3942 16.421 13.4581C16.3159 13.5206 16.2335 13.6051 16.1738 13.7116C16.1142 13.8168 16.0836 13.9339 16.0822 14.0632V14.598C16.0822 14.7599 16.112 14.8999 16.1717 15.0178C16.2328 15.1357 16.3187 15.2266 16.4295 15.2905C16.5403 15.3544 16.6717 15.3864 16.8237 15.3864C16.9245 15.3864 17.0169 15.3722 17.1007 15.3438C17.1845 15.3153 17.2562 15.2727 17.3159 15.2159C17.3755 15.1591 17.421 15.0895 17.4522 15.0071L18.2917 15.0625C18.2491 15.2642 18.1618 15.4403 18.0297 15.5909C17.899 15.7401 17.7299 15.8565 17.5225 15.9403C17.3166 16.0227 17.0787 16.0639 16.8088 16.0639Z" fill="#0FB4C3"/>
</svg>
