<svg width="19" height="19" viewBox="0 0 19 19" fill="none" xmlns="http://www.w3.org/2000/svg">
<path d="M4.655 15.1397C4.1975 15.1397 3.77 14.9822 3.4625 14.6897C3.0725 14.3222 2.885 13.7672 2.9525 13.1672L3.23 10.7372C3.2825 10.2797 3.56 9.67217 3.8825 9.34217L10.04 2.82467C11.5775 1.19717 13.1825 1.15217 14.81 2.68967C16.4375 4.22717 16.4825 5.83217 14.945 7.45967L8.7875 13.9772C8.4725 14.3147 7.8875 14.6297 7.43 14.7047L5.015 15.1172C4.8875 15.1247 4.775 15.1397 4.655 15.1397ZM12.4475 2.68217C11.87 2.68217 11.3675 3.04217 10.8575 3.58217L4.7 10.1072C4.55 10.2647 4.3775 10.6397 4.3475 10.8572L4.07 13.2872C4.04 13.5347 4.1 13.7372 4.235 13.8647C4.37 13.9922 4.5725 14.0372 4.82 13.9997L7.235 13.5872C7.4525 13.5497 7.8125 13.3547 7.9625 13.1972L14.12 6.67967C15.05 5.68967 15.3875 4.77467 14.03 3.49967C13.43 2.92217 12.9125 2.68217 12.4475 2.68217Z" fill="#0FB4C3"/>
<path d="M13.505 8.71263C13.49 8.71263 13.4675 8.71263 13.4525 8.71263C11.1125 8.48013 9.23 6.70263 8.87 4.37763C8.825 4.07013 9.035 3.78513 9.3425 3.73263C9.65 3.68763 9.935 3.89763 9.9875 4.20513C10.2725 6.02013 11.7425 7.41513 13.5725 7.59513C13.88 7.62513 14.105 7.90263 14.075 8.21013C14.0375 8.49513 13.79 8.71263 13.505 8.71263Z" fill="#0FB4C3"/>
<path d="M16.25 17.5625H2.75C2.4425 17.5625 2.1875 17.3075 2.1875 17C2.1875 16.6925 2.4425 16.4375 2.75 16.4375H16.25C16.5575 16.4375 16.8125 16.6925 16.8125 17C16.8125 17.3075 16.5575 17.5625 16.25 17.5625Z" fill="#0FB4C3"/>
</svg>
