<svg width="33" height="32" viewBox="0 0 33 32" fill="none" xmlns="http://www.w3.org/2000/svg">
<path d="M20.9799 5.43984H18.1V6.39984C18.1 6.75184 17.812 7.03984 17.46 7.03984H8.49995C8.14795 7.03984 7.85995 6.75184 7.85995 6.39984V5.43984H4.97995C4.27275 5.43984 3.69995 6.01264 3.69995 6.71984V26.8798C3.69995 27.587 4.27275 28.1598 4.97995 28.1598H20.9799C21.6872 28.1598 22.26 27.587 22.26 26.8798V6.71984C22.26 6.01264 21.6872 5.43984 20.9799 5.43984ZM10.1 25.5998C10.1 25.9518 9.81195 26.2398 9.45995 26.2398H6.25995C5.90795 26.2398 5.61995 25.9518 5.61995 25.5998V22.3998C5.61995 22.0478 5.90795 21.7598 6.25995 21.7598H9.45995C9.81195 21.7598 10.1 22.0478 10.1 22.3998V25.5998ZM10.1 19.1998C10.1 19.5518 9.81195 19.8398 9.45995 19.8398H6.25995C5.90795 19.8398 5.61995 19.5518 5.61995 19.1998V15.9998C5.61995 15.6478 5.90795 15.3598 6.25995 15.3598H9.45995C9.81195 15.3598 10.1 15.6478 10.1 15.9998V19.1998ZM10.1 12.7998C10.1 13.1518 9.81195 13.4398 9.45995 13.4398H6.25995C5.90795 13.4398 5.61995 13.1518 5.61995 12.7998V9.59984C5.61995 9.24784 5.90795 8.95984 6.25995 8.95984H9.45995C9.81195 8.95984 10.1 9.24784 10.1 9.59984V12.7998ZM19.7 26.2398H12.66C12.308 26.2398 12.02 25.9518 12.02 25.5998C12.02 25.2478 12.308 24.9598 12.66 24.9598H19.7C20.052 24.9598 20.34 25.2478 20.34 25.5998C20.34 25.9518 20.052 26.2398 19.7 26.2398ZM19.7 23.0398H12.66C12.308 23.0398 12.02 22.7518 12.02 22.3998C12.02 22.0478 12.308 21.7598 12.66 21.7598H19.7C20.052 21.7598 20.34 22.0478 20.34 22.3998C20.34 22.7518 20.052 23.0398 19.7 23.0398ZM19.7 19.8398H12.66C12.308 19.8398 12.02 19.5518 12.02 19.1998C12.02 18.8478 12.308 18.5598 12.66 18.5598H19.7C20.052 18.5598 20.34 18.8478 20.34 19.1998C20.34 19.5518 20.052 19.8398 19.7 19.8398ZM19.7 16.6398H12.66C12.308 16.6398 12.02 16.3518 12.02 15.9998C12.02 15.6478 12.308 15.3598 12.66 15.3598H19.7C20.052 15.3598 20.34 15.6478 20.34 15.9998C20.34 16.3518 20.052 16.6398 19.7 16.6398ZM19.7 13.4398H12.66C12.308 13.4398 12.02 13.1518 12.02 12.7998C12.02 12.4478 12.308 12.1598 12.66 12.1598H19.7C20.052 12.1598 20.34 12.4478 20.34 12.7998C20.34 13.1518 20.052 13.4398 19.7 13.4398ZM19.7 10.2398H12.66C12.308 10.2398 12.02 9.95184 12.02 9.59984C12.02 9.24784 12.308 8.95984 12.66 8.95984H19.7C20.052 8.95984 20.34 9.24784 20.34 9.59984C20.34 9.95184 20.052 10.2398 19.7 10.2398ZM6.89995 23.0398H8.81995V24.9598H6.89995V23.0398ZM6.89995 16.6398H8.81995V18.5598H6.89995V16.6398ZM6.89995 10.2398H8.81995V12.1598H6.89995V10.2398ZM16.82 5.75984H9.13995V3.83984H16.82V5.75984ZM26.74 8.63984H29.2999V22.7198H26.74V8.63984ZM27.0056 23.9998H29.0343L28.02 26.8766L27.0056 23.9998ZM29.2999 6.71984V7.35984H26.74V6.71984C26.74 6.01264 27.3127 5.43984 28.02 5.43984C28.7271 5.43984 29.2999 6.01264 29.2999 6.71984Z" fill="#F8F8FF"/>
</svg>
