<svg width="22" height="22" viewBox="0 0 22 22" fill="none" xmlns="http://www.w3.org/2000/svg">
<path d="M11 6.75C10.3787 6.75 9.875 7.25368 9.875 7.875C9.875 8.28921 9.53921 8.625 9.125 8.625C8.71079 8.625 8.375 8.28921 8.375 7.875C8.375 6.42525 9.55025 5.25 11 5.25C12.4497 5.25 13.625 6.42525 13.625 7.875C13.625 8.83834 13.1056 9.67957 12.3353 10.1354C12.1385 10.2518 11.9761 10.3789 11.8703 10.5036C11.7675 10.6246 11.75 10.7036 11.75 10.75V12C11.75 12.4142 11.4142 12.75 11 12.75C10.5858 12.75 10.25 12.4142 10.25 12V10.75C10.25 10.2441 10.4715 9.83364 10.7266 9.53301C10.9786 9.23602 11.2929 9.0092 11.5715 8.84439C11.9044 8.64739 12.125 8.28655 12.125 7.875C12.125 7.25368 11.6213 6.75 11 6.75Z" fill="#0FB4C3"/>
<path d="M11 16C11.5523 16 12 15.5523 12 15C12 14.4477 11.5523 14 11 14C10.4477 14 10 14.4477 10 15C10 15.5523 10.4477 16 11 16Z" fill="#0FB4C3"/>
<path fill-rule="evenodd" clip-rule="evenodd" d="M10.9426 0.25H11.0574C13.3658 0.249988 15.1748 0.249978 16.5863 0.439747C18.031 0.633987 19.1711 1.03933 20.0659 1.93414C20.9607 2.82895 21.366 3.96897 21.5603 5.41371C21.75 6.82519 21.75 8.63423 21.75 10.9426V11.0574C21.75 13.3658 21.75 15.1748 21.5603 16.5863C21.366 18.031 20.9607 19.1711 20.0659 20.0659C19.1711 20.9607 18.031 21.366 16.5863 21.5603C15.1748 21.75 13.3658 21.75 11.0574 21.75H10.9426C8.63423 21.75 6.82519 21.75 5.41371 21.5603C3.96897 21.366 2.82895 20.9607 1.93414 20.0659C1.03933 19.1711 0.633987 18.031 0.439747 16.5863C0.249978 15.1748 0.249988 13.3658 0.25 11.0574V10.9426C0.249988 8.63424 0.249978 6.82519 0.439747 5.41371C0.633987 3.96897 1.03933 2.82895 1.93414 1.93414C2.82895 1.03933 3.96897 0.633987 5.41371 0.439747C6.82519 0.249978 8.63424 0.249988 10.9426 0.25ZM5.61358 1.92637C4.33517 2.09825 3.56445 2.42514 2.9948 2.9948C2.42514 3.56445 2.09825 4.33517 1.92637 5.61358C1.75159 6.91356 1.75 8.62177 1.75 11C1.75 13.3782 1.75159 15.0864 1.92637 16.3864C2.09825 17.6648 2.42514 18.4355 2.9948 19.0052C3.56445 19.5749 4.33517 19.9018 5.61358 20.0736C6.91356 20.2484 8.62177 20.25 11 20.25C13.3782 20.25 15.0864 20.2484 16.3864 20.0736C17.6648 19.9018 18.4355 19.5749 19.0052 19.0052C19.5749 18.4355 19.9018 17.6648 20.0736 16.3864C20.2484 15.0864 20.25 13.3782 20.25 11C20.25 8.62177 20.2484 6.91356 20.0736 5.61358C19.9018 4.33517 19.5749 3.56445 19.0052 2.9948C18.4355 2.42514 17.6648 2.09825 16.3864 1.92637C15.0864 1.75159 13.3782 1.75 11 1.75C8.62177 1.75 6.91356 1.75159 5.61358 1.92637Z" fill="#0FB4C3"/>
</svg>
