<svg width="24" height="24" viewBox="0 0 24 24" fill="none" xmlns="http://www.w3.org/2000/svg">
<g clip-path="url(#clip0_1_99)">
<path d="M23.4404 12.2245C23.4404 11.2413 23.3606 10.5237 23.188 9.77963H11.96V14.2176H18.5506C18.4177 15.3205 17.7002 16.9815 16.1057 18.0976L16.0833 18.2461L19.6334 20.9963L19.8793 21.0209C22.1382 18.9347 23.4404 15.8653 23.4404 12.2245Z" fill="#4285F4"/>
<path d="M11.96 23.9176C15.1888 23.9176 17.8994 22.8545 19.8793 21.0209L16.1057 18.0976C15.0958 18.8018 13.7405 19.2934 11.96 19.2934C8.79758 19.2934 6.11352 17.2074 5.15672 14.324L5.01648 14.3359L1.32506 17.1927L1.27678 17.3269C3.24332 21.2334 7.28274 23.9176 11.96 23.9176Z" fill="#34A853"/>
<path d="M5.15672 14.324C4.90426 13.5799 4.75816 12.7826 4.75816 11.9588C4.75816 11.1349 4.90426 10.3377 5.14344 9.59359L5.13675 9.43511L1.39907 6.53239L1.27678 6.59056C0.466278 8.21166 0.00120926 10.0321 0.00120926 11.9588C0.00120926 13.8855 0.466278 15.7058 1.27678 17.3269L5.15672 14.324Z" fill="#FBBC05"/>
<path d="M11.96 4.62403C14.2055 4.62403 15.7203 5.59402 16.584 6.40461L19.959 3.10928C17.8862 1.1826 15.1888 0 11.96 0C7.28274 0 3.24332 2.68406 1.27678 6.59056L5.14344 9.59359C6.11352 6.7102 8.79758 4.62403 11.96 4.62403Z" fill="#EB4335"/>
</g>
<defs>
<clipPath id="clip0_1_99">
<rect width="23.4528" height="24" fill="white"/>
</clipPath>
</defs>
</svg>
