<svg width="32" height="32" viewBox="0 0 32 32" fill="none" xmlns="http://www.w3.org/2000/svg">
<path d="M26.792 14.2985C26.618 13.3119 26.0996 12.4139 25.3321 11.7699C24.8967 11.4045 24.6025 10.8951 24.5038 10.3353C24.3298 9.34871 23.8112 8.45064 23.0439 7.80666C22.2764 7.16268 21.302 6.80797 20.3002 6.80797C19.7318 6.80797 19.1789 6.60674 18.7435 6.24136C17.9759 5.59738 17.0016 5.24268 15.9997 5.24268C14.9979 5.24268 14.0235 5.59738 13.256 6.24136C12.8206 6.60674 12.2678 6.80797 11.6993 6.80797C10.6975 6.80797 9.72312 7.16268 8.9556 7.80666C8.18808 8.45064 7.66971 9.34871 7.4957 10.3353C7.39699 10.8951 7.10294 11.4045 6.66736 11.7699C5.89984 12.4139 5.38147 13.3119 5.20746 14.2985C5.03345 15.2851 5.21351 16.3064 5.71453 17.1739C5.9987 17.6662 6.10091 18.2455 6.00221 18.8053C5.8282 19.7918 6.00826 20.8131 6.50927 21.6806C7.01013 22.5483 7.80456 23.2147 8.74593 23.5575C9.28006 23.7519 9.73076 24.13 10.0149 24.6223C10.5158 25.4899 11.3102 26.1563 12.2516 26.4991C13.193 26.8417 14.23 26.8417 15.1714 26.4991C15.7055 26.3047 16.2938 26.3047 16.8279 26.4991C17.2987 26.6704 17.7932 26.7561 18.2878 26.7561C18.7825 26.7561 19.277 26.6704 19.7477 26.4991C20.6891 26.1565 21.4835 25.4899 21.9844 24.6223C22.2686 24.13 22.7193 23.7519 23.2534 23.5575C24.1948 23.2149 24.9892 22.5483 25.49 21.6806C25.9909 20.813 26.171 19.7918 25.9971 18.8053C25.8984 18.2455 26.0006 17.6662 26.2848 17.1739C26.7857 16.3062 26.9657 15.2851 26.7919 14.2985H26.792ZM20.3771 14.6625L15.7968 19.1881C15.5887 19.3937 15.3064 19.5093 15.0122 19.5093C14.718 19.5093 14.4357 19.3937 14.2276 19.1881L12.0733 17.0594C11.6399 16.6313 11.6399 15.937 12.0733 15.5089C12.5066 15.0808 13.2092 15.0808 13.6426 15.5089L15.0124 16.8623L18.8081 13.1118C19.2415 12.6837 19.944 12.6837 20.3774 13.1118C20.8107 13.5399 20.8107 14.2342 20.3774 14.6623L20.3771 14.6625Z" fill="#F8F8FF"/>
</svg>
