<svg width="24" height="24" viewBox="0 0 24 24" fill="none" xmlns="http://www.w3.org/2000/svg">
<g clip-path="url(#clip0_114_211)">
<path d="M3.4275 15.7951L0.967501 18.2551C0.869795 18.3505 0.799995 18.4708 0.76563 18.603C0.731266 18.7351 0.733641 18.8742 0.772501 19.0051C0.806428 19.1329 0.873554 19.2495 0.967072 19.343C1.06059 19.4365 1.17717 19.5037 1.305 19.5376L3.8025 20.2201L4.5 22.6951C4.53393 22.8229 4.60105 22.9395 4.69457 23.033C4.78809 23.1265 4.90467 23.1937 5.0325 23.2276C5.10375 23.2443 5.17684 23.2519 5.25 23.2501C5.34871 23.2507 5.44655 23.2317 5.53793 23.1944C5.62931 23.1571 5.71242 23.1021 5.7825 23.0326L9 19.8001C6.74791 19.1238 4.7865 17.7141 3.4275 15.7951ZM23.0325 18.2551L20.5725 15.7951C19.2135 17.7141 17.2521 19.1238 15 19.8001L18.225 23.0326C18.2951 23.1021 18.3782 23.1571 18.4696 23.1944C18.5609 23.2317 18.6588 23.2507 18.7575 23.2501C18.8223 23.2575 18.8877 23.2575 18.9525 23.2501C19.0803 23.2162 19.1969 23.149 19.2904 23.0555C19.3839 22.962 19.4511 22.8454 19.485 22.7176L20.1675 20.2201L22.695 19.5001C22.8233 19.4667 22.9404 19.3999 23.0345 19.3065C23.1286 19.2131 23.1962 19.0964 23.2305 18.9683C23.2648 18.8403 23.2646 18.7054 23.2298 18.5775C23.195 18.4496 23.1269 18.3332 23.0325 18.2401V18.2551ZM12.8775 9.4126L12 8.1001L11.1225 9.4126C11.0211 9.56487 10.8676 9.67483 10.6908 9.7218C10.514 9.76876 10.3261 9.74949 10.1625 9.6676L8.445 8.8126L8.9025 12.0001H15.0975L15.555 8.8126L13.8375 9.6676C13.6739 9.74949 13.486 9.76876 13.3092 9.7218C13.1324 9.67483 12.9789 9.56487 12.8775 9.4126Z" fill="white"/>
<path d="M21 9.75C21 7.96997 20.4722 6.22991 19.4832 4.74987C18.4943 3.26983 17.0887 2.11628 15.4442 1.43509C13.7996 0.7539 11.99 0.57567 10.2442 0.922937C8.49836 1.2702 6.89471 2.12737 5.63604 3.38604C4.37737 4.64472 3.5202 6.24836 3.17293 7.99419C2.82567 9.74002 3.0039 11.5496 3.68508 13.1942C4.36627 14.8387 5.51983 16.2443 6.99987 17.2332C8.47991 18.2222 10.22 18.75 12 18.75C14.3869 18.75 16.6761 17.8018 18.364 16.114C20.0518 14.4261 21 12.137 21 9.75ZM17.25 7.605L16.5 12.855C16.4745 13.0352 16.3844 13.2 16.2464 13.3187C16.1084 13.4374 15.932 13.5018 15.75 13.5H8.25C8.06801 13.5018 7.89158 13.4374 7.75359 13.3187C7.6156 13.2 7.52547 13.0352 7.5 12.855L6.75 7.605C6.73593 7.47135 6.75802 7.33638 6.81398 7.21419C6.86994 7.092 6.9577 6.98709 7.06808 6.91044C7.17846 6.83378 7.30742 6.7882 7.44145 6.77844C7.57549 6.76869 7.70968 6.79513 7.83 6.855L10.2375 8.055L11.37 6.36C11.4386 6.25791 11.5313 6.17426 11.6398 6.11642C11.7484 6.05858 11.8695 6.02833 11.9925 6.02833C12.1155 6.02833 12.2366 6.05858 12.3452 6.11642C12.4537 6.17426 12.5464 6.25791 12.615 6.36L13.7475 8.055L16.155 6.855C16.2753 6.79513 16.4095 6.76869 16.5435 6.77844C16.6776 6.7882 16.8065 6.83378 16.9169 6.91044C17.0273 6.98709 17.1151 7.092 17.171 7.21419C17.227 7.33638 17.2491 7.47135 17.235 7.605H17.25Z" fill="white"/>
</g>
<defs>
<clipPath id="clip0_114_211">
<rect width="24" height="24" fill="white"/>
</clipPath>
</defs>
</svg>
