<svg width="119" height="58" viewBox="0 0 119 58" fill="none" xmlns="http://www.w3.org/2000/svg">
<path d="M42.3125 26.8438H17.0938V36.25C19.3646 33.7708 21.4688 32.1771 23.4062 31.4688C24.4896 31.0729 25.7083 30.875 27.0625 30.875C32.1458 30.875 35.9479 33.375 38.4688 38.375C39.5729 40.5625 40.125 42.7188 40.125 44.8438C40.125 48.7188 38.5312 52.2188 35.3438 55.3438C34.2812 56.3854 33.4896 57.1042 32.9688 57.5L27.8438 54.4375C29.1354 53.0833 30.6042 51.4167 32.25 49.4375C34.1042 47.2083 35.0417 44.3958 35.0625 41C35.0833 38.9792 34.625 37.2917 33.6875 35.9375C32.625 34.3542 31.125 33.5833 29.1875 33.625C27.3958 33.6667 25.4792 34.3438 23.4375 35.6562C21.6042 36.8229 20.0833 38.2188 18.875 39.8438C17.5625 41.5938 16.9062 43.2812 16.9062 44.9062V57.3125L11.0625 54.1875V26.8438H7.625V23.0938H11.0625C11.0625 16.9688 9.46875 11.7396 6.28125 7.40625C4.36458 4.80208 2.59375 2.96875 0.96875 1.90625L7.28125 1.84375C10.7812 3.76042 13.5625 7.89583 15.625 14.25C16.6042 17.2708 17.0938 20.2188 17.0938 23.0938H42.3125V26.8438ZM72.2812 26.8438H51.4688V31.8438C51.5521 31.8438 51.6354 31.8854 51.7188 31.9688C51.8021 32.0521 51.875 32.0938 51.9375 32.0938C51.7708 32.0938 51.6771 32.0833 51.6562 32.0625C51.6562 31.9583 53.2083 31.625 56.3125 31.0625C57.4583 30.8542 58.5938 30.75 59.7188 30.75C64.4062 30.75 67.4167 32.0625 68.75 34.6875C69.6458 36.4375 70.0938 39.9688 70.0938 45.2812V57.3125C69.6562 57.1458 68 56.4688 65.125 55.2812C65.125 54.6146 64.9896 54.1875 64.7188 54C63.6146 54.6458 62.7083 55.1354 62 55.4688C59.75 56.5312 57.1354 57.0625 54.1562 57.0625C50.0521 57.0625 46.8854 55.7708 44.6562 53.1875C43.5729 51.9375 43.0312 50.5417 43.0312 49C43.0312 47.2708 43.8854 45.5521 45.5938 43.8438C48.9062 40.5312 53.0208 38.875 57.9375 38.875C60.9167 38.875 63.3125 39.5625 65.125 40.9375V38.0625C64.2083 36.8958 63.3125 36.1146 62.4375 35.7188C61.5833 35.3229 60.4062 35.1458 58.9062 35.1875C55.5521 35.25 52.4792 35.8646 49.6875 37.0312C48.4375 37.5521 47.2188 38.0208 46.0312 38.4375V36.125C46.3021 35.8958 46.6979 35.5521 47.2188 35.0938C47.3021 34.9896 47.3542 34.9271 47.375 34.9062V26.8438H40.9688V23.0938H72.2812V26.8438ZM65.125 46.625C65.125 45.7083 64.0312 44.8854 61.8438 44.1562C60.0312 43.5521 58.5208 43.25 57.3125 43.25C52.9167 43.25 49.3958 44.8333 46.75 48C45.6875 49.2708 45.1562 50.3125 45.1562 51.125C45.5938 52.6458 47.3125 53.4062 50.3125 53.4062C54.1875 53.4062 57.7292 52.4375 60.9375 50.5C63.7292 48.8125 65.125 47.5208 65.125 46.625ZM106.188 26.8438H82.4375V38.5C84.1667 36.3542 86.2292 34.5 88.625 32.9375C90.25 31.875 91.875 31.3438 93.5 31.3438C96.7917 31.3438 99.5625 32.6042 101.812 35.125C103.875 37.4375 104.906 39.9479 104.906 42.6562C104.906 45.7812 103.396 48.9583 100.375 52.1875C97.3542 55.3958 94.2917 57 91.1875 57C89.6042 57 87.9375 56.2917 86.1875 54.875C85.6458 54.4375 84.3125 53.1354 82.1875 50.9688V57.375L76.75 55.0312V26.8438H71.625V23.0938H76.75C76.75 18.1354 75.3646 13.2708 72.5938 8.5C70.4062 4.72917 68.3125 1.96875 66.3125 0.21875H73.1562C75.2188 1.96875 77.0208 4.1875 78.5625 6.875C81.1458 11.3958 82.4375 16.8021 82.4375 23.0938H106.188V26.8438ZM101.438 45.875C101.438 43.9375 100.354 41.8438 98.1875 39.5938C95.7708 37.0729 92.9688 35.8125 89.7812 35.8125C87.7812 35.8125 85.9062 36.8021 84.1562 38.7812C83.4688 39.5729 83.125 40.1667 83.125 40.5625C83.125 42.2917 83.8958 44.2917 85.4375 46.5625C88.6875 51.3542 92.0417 53.75 95.5 53.75C97.6875 53.75 99.3958 52.3438 100.625 49.5312C101.167 48.3021 101.438 47.0833 101.438 45.875ZM116.25 19.8125C116.167 19.8958 115.927 19.9375 115.531 19.9375C115.198 19.9375 114.906 19.8958 114.656 19.8125L112.625 15.6562C111.792 14.3438 110.656 13.4583 109.219 13C107.802 12.5208 106.927 12 106.594 11.4375C106.281 10.4792 105.677 9.01042 104.781 7.03125V6.3125H106C107.604 6.8125 108.906 7.28125 109.906 7.71875C111.552 8.44792 112.656 9.29167 113.219 10.25C113.531 10.7708 114.01 12.1042 114.656 14.25C115.26 16.2708 115.771 17.6771 116.188 18.4688C116.229 18.8438 116.25 19.2917 116.25 19.8125ZM118.094 26.8438H105.375V23.0938H118.094V26.8438ZM114.531 57.7188L109.281 54.8125V30.6875H114.531V57.7188Z" fill="#C0C0C0"/>
</svg>
