<svg width="29" height="16" viewBox="0 0 29 16" fill="none" xmlns="http://www.w3.org/2000/svg">
<path d="M10.5781 7.46094H4.27344V9.8125C4.84115 9.19271 5.36719 8.79427 5.85156 8.61719C6.1224 8.51823 6.42708 8.46875 6.76562 8.46875C8.03646 8.46875 8.98698 9.09375 9.61719 10.3438C9.89323 10.8906 10.0312 11.4297 10.0312 11.9609C10.0312 12.9297 9.63281 13.8047 8.83594 14.5859C8.57031 14.8464 8.3724 15.026 8.24219 15.125L6.96094 14.3594C7.28385 14.0208 7.65104 13.6042 8.0625 13.1094C8.52604 12.5521 8.76042 11.849 8.76562 11C8.77083 10.4948 8.65625 10.0729 8.42188 9.73438C8.15625 9.33854 7.78125 9.14583 7.29688 9.15625C6.84896 9.16667 6.36979 9.33594 5.85938 9.66406C5.40104 9.95573 5.02083 10.3047 4.71875 10.7109C4.39062 11.1484 4.22656 11.5703 4.22656 11.9766V15.0781L2.76562 14.2969V7.46094H1.90625V6.52344H2.76562C2.76562 4.99219 2.36719 3.6849 1.57031 2.60156C1.09115 1.95052 0.648438 1.49219 0.242188 1.22656L1.82031 1.21094C2.69531 1.6901 3.39062 2.72396 3.90625 4.3125C4.15104 5.06771 4.27344 5.80469 4.27344 6.52344H10.5781V7.46094ZM17.6328 7.46094H12.4297V8.71094C12.4505 8.71094 12.4714 8.72135 12.4922 8.74219C12.513 8.76302 12.5312 8.77344 12.5469 8.77344C12.5052 8.77344 12.4818 8.77083 12.4766 8.76562C12.4766 8.73958 12.8646 8.65625 13.6406 8.51562C13.9271 8.46354 14.2109 8.4375 14.4922 8.4375C15.6641 8.4375 16.4167 8.76562 16.75 9.42188C16.974 9.85938 17.0859 10.7422 17.0859 12.0703V15.0781C16.9766 15.0365 16.5625 14.8672 15.8438 14.5703C15.8438 14.4036 15.8099 14.2969 15.7422 14.25C15.4661 14.4115 15.2396 14.5339 15.0625 14.6172C14.5 14.8828 13.8464 15.0156 13.1016 15.0156C12.0755 15.0156 11.2839 14.6927 10.7266 14.0469C10.4557 13.7344 10.3203 13.3854 10.3203 13C10.3203 12.5677 10.5339 12.138 10.9609 11.7109C11.7891 10.8828 12.8177 10.4688 14.0469 10.4688C14.7917 10.4688 15.3906 10.6406 15.8438 10.9844V10.2656C15.6146 9.97396 15.3906 9.77865 15.1719 9.67969C14.9583 9.58073 14.6641 9.53646 14.2891 9.54688C13.4505 9.5625 12.6823 9.71615 11.9844 10.0078C11.6719 10.138 11.3672 10.2552 11.0703 10.3594V9.78125C11.138 9.72396 11.237 9.63802 11.3672 9.52344C11.388 9.4974 11.401 9.48177 11.4062 9.47656V7.46094H9.80469V6.52344H17.6328V7.46094ZM15.8438 12.4062C15.8438 12.1771 15.5703 11.9714 15.0234 11.7891C14.5703 11.638 14.1927 11.5625 13.8906 11.5625C12.7917 11.5625 11.9115 11.9583 11.25 12.75C10.9844 13.0677 10.8516 13.3281 10.8516 13.5312C10.9609 13.9115 11.3906 14.1016 12.1406 14.1016C13.1094 14.1016 13.9948 13.8594 14.7969 13.375C15.4948 12.9531 15.8438 12.6302 15.8438 12.4062ZM25.6719 7.46094H19.7344V10.375C20.1667 9.83854 20.6823 9.375 21.2812 8.98438C21.6875 8.71875 22.0938 8.58594 22.5 8.58594C23.3229 8.58594 24.0156 8.90104 24.5781 9.53125C25.0938 10.1094 25.3516 10.737 25.3516 11.4141C25.3516 12.1953 24.974 12.9896 24.2188 13.7969C23.4635 14.599 22.6979 15 21.9219 15C21.526 15 21.1094 14.8229 20.6719 14.4688C20.5365 14.3594 20.2031 14.0339 19.6719 13.4922V15.0938L18.3125 14.5078V7.46094H17.0312V6.52344H18.3125C18.3125 5.28385 17.9661 4.06771 17.2734 2.875C16.7266 1.93229 16.2031 1.24219 15.7031 0.804688H17.4141C17.9297 1.24219 18.3802 1.79688 18.7656 2.46875C19.4115 3.59896 19.7344 4.95052 19.7344 6.52344H25.6719V7.46094ZM24.4844 12.2188C24.4844 11.7344 24.2135 11.2109 23.6719 10.6484C23.0677 10.0182 22.3672 9.70312 21.5703 9.70312C21.0703 9.70312 20.6016 9.95052 20.1641 10.4453C19.9922 10.6432 19.9062 10.7917 19.9062 10.8906C19.9062 11.3229 20.099 11.8229 20.4844 12.3906C21.2969 13.5885 22.1354 14.1875 23 14.1875C23.5469 14.1875 23.974 13.8359 24.2812 13.1328C24.4167 12.8255 24.4844 12.5208 24.4844 12.2188ZM27.75 5.70312C27.7292 5.72396 27.6693 5.73438 27.5703 5.73438C27.487 5.73438 27.4141 5.72396 27.3516 5.70312L26.8438 4.66406C26.6354 4.33594 26.3516 4.11458 25.9922 4C25.638 3.88021 25.4193 3.75 25.3359 3.60938C25.2578 3.36979 25.1068 3.0026 24.8828 2.50781V2.32812H25.1875C25.5885 2.45312 25.9141 2.57031 26.1641 2.67969C26.5755 2.86198 26.8516 3.07292 26.9922 3.3125C27.0703 3.44271 27.1901 3.77604 27.3516 4.3125C27.5026 4.81771 27.6302 5.16927 27.7344 5.36719C27.7448 5.46094 27.75 5.57292 27.75 5.70312ZM28.2109 7.46094H25.0312V6.52344H28.2109V7.46094ZM27.3203 15.1797L26.0078 14.4531V8.42188H27.3203V15.1797Z" fill="#0FB4C3"/>
</svg>
