<svg width="33" height="32" viewBox="0 0 33 32" fill="none" xmlns="http://www.w3.org/2000/svg">
<path fill-rule="evenodd" clip-rule="evenodd" d="M16.9881 13.9305C16.7072 13.6898 16.2928 13.6898 16.0119 13.9305C15.2558 14.5787 14.0089 15.0691 13.3593 15.1932C13.0057 15.2607 12.75 15.5699 12.75 15.9298V18.125C12.75 19.3229 13.5023 20.4107 14.2141 21.1378C14.5845 21.5162 14.9828 21.8375 15.347 22.0695C15.5289 22.1854 15.7132 22.286 15.8903 22.36C16.0528 22.428 16.2702 22.5 16.5 22.5C16.7298 22.5 16.9472 22.428 17.1097 22.36C17.2868 22.286 17.4711 22.1854 17.653 22.0695C18.0172 21.8375 18.4155 21.5162 18.7859 21.1378C19.4977 20.4107 20.25 19.3229 20.25 18.125V15.9298C20.25 15.573 19.9985 15.2655 19.6487 15.1947C19.0277 15.0691 17.7402 14.5752 16.9881 13.9305ZM14.25 18.125V16.5106C14.9343 16.2989 15.7853 15.9291 16.5012 15.4404C17.2202 15.9271 18.0799 16.2942 18.75 16.5055V18.125C18.75 18.7289 18.3356 19.4536 17.7141 20.0885C17.4178 20.3911 17.1078 20.6383 16.847 20.8044C16.7164 20.8877 16.609 20.9435 16.5309 20.9762C16.5191 20.9811 16.5089 20.9852 16.5 20.9885C16.4911 20.9852 16.4808 20.9811 16.4691 20.9762C16.391 20.9435 16.2836 20.8877 16.153 20.8044C15.8922 20.6383 15.5822 20.3911 15.2859 20.0885C14.6644 19.4536 14.25 18.7289 14.25 18.125Z" fill="#F8F8FF"/>
<path fill-rule="evenodd" clip-rule="evenodd" d="M17.3085 3.23661C16.8156 2.92113 16.1843 2.92113 15.6914 3.23661L3.19136 11.2366C2.4936 11.6832 2.28997 12.6108 2.73653 13.3086C3.18309 14.0064 4.11076 14.21 4.80851 13.7634L5.99994 13.0009V25C5.99994 27.2093 7.79079 29 9.99994 29H22.9999C25.2091 29 26.9999 27.2093 26.9999 25V13.0009L28.1914 13.7634C28.8892 14.21 29.8167 14.0064 30.2634 13.3086C30.7099 12.6108 30.5062 11.6832 29.8084 11.2366L17.3085 3.23661ZM16.4999 24C17.611 24 21.4999 20.9823 21.4999 18V15.1067C21.4999 14.667 21.213 14.2793 20.7965 14.1384C20.2519 13.9542 19.5074 13.6852 18.9999 13.4333C18.3181 13.0949 17.5444 12.6402 17.0406 12.3345C16.7087 12.133 16.2912 12.133 15.9592 12.3345C15.4555 12.6402 14.6818 13.0949 13.9999 13.4333C13.4924 13.6852 12.7479 13.9542 12.2034 14.1384C11.7869 14.2793 11.4999 14.667 11.4999 15.1067V18C11.4999 20.9823 15.3888 24 16.4999 24Z" fill="#F8F8FF"/>
</svg>
