<svg width="25" height="25" viewBox="0 0 26 24" fill="none" xmlns="http://www.w3.org/2000/svg">
<g clip-path="url(#clip0_105_252)">
<path fill-rule="evenodd" clip-rule="evenodd" d="M13 1.25C10.2595 1.25 8.03781 3.37665 8.03781 6C8.03781 8.62335 10.2595 10.75 13 10.75C15.7405 10.75 17.9622 8.62335 17.9622 6C17.9622 3.37665 15.7405 1.25 13 1.25ZM9.60481 6C9.60481 4.20507 11.1249 2.75 13 2.75C14.8751 2.75 16.3952 4.20507 16.3952 6C16.3952 7.79493 14.8751 9.25 13 9.25C11.1249 9.25 9.60481 7.79493 9.60481 6Z" fill="#111111"/>
<path d="M19.268 3.25C18.8353 3.25 18.4845 3.58579 18.4845 4C18.4845 4.41421 18.8353 4.75 19.268 4.75C20.706 4.75 21.6185 5.65573 21.6185 6.5C21.6185 7.34427 20.706 8.25 19.268 8.25C18.8353 8.25 18.4845 8.58579 18.4845 9C18.4845 9.41421 18.8353 9.75 19.268 9.75C21.2918 9.75 23.1856 8.41715 23.1856 6.5C23.1856 4.58285 21.2918 3.25 19.268 3.25Z" fill="#111111"/>
<path d="M7.51547 4C7.51547 3.58579 7.16468 3.25 6.73196 3.25C4.7082 3.25 2.81444 4.58285 2.81444 6.5C2.81444 8.41715 4.7082 9.75 6.73196 9.75C7.16468 9.75 7.51547 9.41421 7.51547 9C7.51547 8.58579 7.16468 8.25 6.73196 8.25C5.29399 8.25 4.38145 7.34427 4.38145 6.5C4.38145 5.65573 5.29399 4.75 6.73196 4.75C7.16468 4.75 7.51547 4.41421 7.51547 4Z" fill="#111111"/>
<path fill-rule="evenodd" clip-rule="evenodd" d="M13 12.25C11.136 12.25 9.41307 12.7308 8.13322 13.5475C6.85885 14.3608 5.94846 15.5666 5.94846 17C5.94846 18.4334 6.85885 19.6392 8.13322 20.4525C9.41307 21.2692 11.136 21.75 13 21.75C14.864 21.75 16.5869 21.2692 17.8668 20.4525C19.1411 19.6392 20.0515 18.4334 20.0515 17C20.0515 15.5666 19.1411 14.3608 17.8668 13.5475C16.5869 12.7308 14.864 12.25 13 12.25ZM7.51547 17C7.51547 16.2242 8.00823 15.4301 9.00244 14.7956C9.99118 14.1646 11.4022 13.75 13 13.75C14.5978 13.75 16.0088 14.1646 16.9976 14.7956C17.9918 15.4301 18.4845 16.2242 18.4845 17C18.4845 17.7758 17.9918 18.5699 16.9976 19.2044C16.0088 19.8354 14.5978 20.25 13 20.25C11.4022 20.25 9.99118 19.8354 9.00244 19.2044C8.00823 18.5699 7.51547 17.7758 7.51547 17Z" fill="#111111"/>
<path d="M20.5921 13.8393C20.6848 13.4347 21.1025 13.1787 21.5252 13.2674C22.5301 13.4783 23.4355 13.8593 24.1078 14.3859C24.7795 14.912 25.2749 15.6352 25.2749 16.5C25.2749 17.3648 24.7795 18.088 24.1078 18.6141C23.4355 19.1407 22.5301 19.5217 21.5252 19.7326C21.1025 19.8213 20.6848 19.5653 20.5921 19.1607C20.4994 18.7561 20.7669 18.3561 21.1896 18.2674C22.0173 18.0936 22.6788 17.7952 23.1154 17.4532C23.5526 17.1108 23.7079 16.7763 23.7079 16.5C23.7079 16.2237 23.5526 15.8892 23.1154 15.5468C22.6788 15.2048 22.0173 14.9064 21.1896 14.7326C20.7669 14.6439 20.4994 14.2439 20.5921 13.8393Z" fill="#111111"/>
<path d="M4.47479 13.2674C4.89746 13.1787 5.31525 13.4347 5.40794 13.8393C5.50063 14.2439 5.23312 14.6439 4.81045 14.7326C3.98269 14.9064 3.32116 15.2048 2.88456 15.5468C2.44737 15.8892 2.29211 16.2237 2.29211 16.5C2.29211 16.7763 2.44737 17.1108 2.88456 17.4532C3.32116 17.7952 3.98269 18.0936 4.81045 18.2674C5.23312 18.3561 5.50063 18.7561 5.40794 19.1607C5.31525 19.5653 4.89746 19.8213 4.47479 19.7326C3.46994 19.5217 2.56445 19.1407 1.8922 18.6141C1.22053 18.088 0.725098 17.3648 0.725098 16.5C0.725098 15.6352 1.22053 14.912 1.8922 14.3859C2.56445 13.8593 3.46994 13.4783 4.47479 13.2674Z" fill="#111111"/>
</g>
<defs>
<clipPath id="clip0_105_252">
<rect width="25.0721" height="24" fill="white" transform="translate(0.463928)"/>
</clipPath>
</defs>
</svg>
