<svg width="24" height="24" viewBox="0 0 24 24" fill="none" xmlns="http://www.w3.org/2000/svg">
<path fill-rule="evenodd" clip-rule="evenodd" d="M12 1.25C9.37665 1.25 7.25 3.37665 7.25 6C7.25 8.62335 9.37665 10.75 12 10.75C14.6234 10.75 16.75 8.62335 16.75 6C16.75 3.37665 14.6234 1.25 12 1.25ZM8.75 6C8.75 4.20507 10.2051 2.75 12 2.75C13.7949 2.75 15.25 4.20507 15.25 6C15.25 7.79493 13.7949 9.25 12 9.25C10.2051 9.25 8.75 7.79493 8.75 6Z" fill="#111111"/>
<path fill-rule="evenodd" clip-rule="evenodd" d="M12 12.25C9.96067 12.25 8.07752 12.7208 6.67815 13.5204C5.3 14.3079 4.25 15.5101 4.25 17C4.25 18.4899 5.3 19.6921 6.67815 20.4796C8.07752 21.2792 9.96067 21.75 12 21.75C14.0393 21.75 15.9225 21.2792 17.3219 20.4796C18.7 19.6921 19.75 18.4899 19.75 17C19.75 15.5101 18.7 14.3079 17.3219 13.5204C15.9225 12.7208 14.0393 12.25 12 12.25ZM5.75 17C5.75 16.2807 6.26701 15.483 7.42236 14.8228C8.55649 14.1747 10.1733 13.75 12 13.75C13.8267 13.75 15.4435 14.1747 16.5776 14.8228C17.733 15.483 18.25 16.2807 18.25 17C18.25 17.7193 17.733 18.517 16.5776 19.1772C15.4435 19.8253 13.8267 20.25 12 20.25C10.1733 20.25 8.55649 19.8253 7.42236 19.1772C6.26701 18.517 5.75 17.7193 5.75 17Z" fill="#111111"/>
<rect x="11" y="12" width="12" height="11" rx="2" fill="#F8F8FF"/>
<path fill-rule="evenodd" clip-rule="evenodd" d="M16.1005 13H16.1495C16.9506 13 17.5853 13 18.0874 13.0593C18.6029 13.1203 19.0272 13.2482 19.3817 13.5391C19.5019 13.6378 19.6122 13.7481 19.7109 13.8683C20.0018 14.2228 20.1297 14.6471 20.1907 15.1626C20.2044 15.2785 20.2149 15.4014 20.223 15.5318C20.616 15.336 20.949 15.175 21.2266 15.0842C21.5523 14.9776 21.8978 14.9346 22.2164 15.1315C22.5351 15.3285 22.6511 15.6567 22.7015 15.9957C22.75 16.3228 22.75 16.7536 22.75 17.2712V17.4788C22.75 17.9964 22.75 18.4272 22.7015 18.7543C22.6511 19.0933 22.5351 19.4215 22.2164 19.6185C21.8978 19.8154 21.5523 19.7724 21.2266 19.6658C20.949 19.575 20.616 19.414 20.223 19.2182C20.2149 19.3486 20.2044 19.4715 20.1907 19.5874C20.1297 20.1029 20.0018 20.5272 19.7109 20.8817C19.6122 21.0019 19.5019 21.1122 19.3817 21.2109C19.0272 21.5018 18.6029 21.6297 18.0874 21.6907C17.5853 21.75 16.9506 21.75 16.1495 21.75H16.1005C15.2994 21.75 14.6647 21.75 14.1626 21.6907C13.6471 21.6297 13.2228 21.5018 12.8683 21.2109C12.7481 21.1122 12.6378 21.0019 12.5391 20.8817C12.2482 20.5272 12.1203 20.1029 12.0593 19.5874C12 19.0853 12 18.4506 12 17.6495V17.1005C12 16.2994 12 15.6647 12.0593 15.1626C12.1203 14.6471 12.2482 14.2228 12.5391 13.8683C12.6378 13.7481 12.7481 13.6378 12.8683 13.5391C13.2228 13.2482 13.6471 13.1203 14.1626 13.0593C14.6647 13 15.2994 13 16.1005 13ZM19.5 17.625V17.125C19.5 16.2939 19.4994 15.7036 19.4458 15.2507C19.3933 14.806 19.2942 14.5428 19.1311 14.3441C19.0636 14.2618 18.9882 14.1864 18.9059 14.1189C18.7072 13.9558 18.444 13.8567 17.9993 13.8042C17.5464 13.7506 16.9561 13.75 16.125 13.75C15.2939 13.75 14.7036 13.7506 14.2507 13.8042C13.806 13.8567 13.5428 13.9558 13.3441 14.1189C13.2618 14.1864 13.1864 14.2618 13.1189 14.3441C12.9558 14.5428 12.8567 14.806 12.8042 15.2507C12.7506 15.7036 12.75 16.2939 12.75 17.125V17.625C12.75 18.4561 12.7506 19.0464 12.8042 19.4993C12.8567 19.944 12.9558 20.2072 13.1189 20.4059C13.1864 20.4882 13.2618 20.5636 13.3441 20.6311C13.5428 20.7942 13.806 20.8933 14.2507 20.9458C14.7036 20.9994 15.2939 21 16.125 21C16.9561 21 17.5464 20.9994 17.9993 20.9458C18.444 20.8933 18.7072 20.7942 18.9059 20.6311C18.9882 20.5636 19.0636 20.4882 19.1311 20.4059C19.2942 20.2072 19.3933 19.944 19.4458 19.4993C19.4994 19.0464 19.5 18.4561 19.5 17.625ZM20.25 18.3932L20.3719 18.4542C20.8696 18.703 21.2049 18.8696 21.4598 18.953C21.7095 19.0347 21.7851 19.0034 21.8221 18.9805C21.8592 18.9576 21.921 18.904 21.9596 18.6441C21.999 18.3788 22 18.0044 22 17.4479V17.3021C22 16.7456 21.999 16.3712 21.9596 16.1059C21.921 15.846 21.8592 15.7924 21.8221 15.7695C21.7851 15.7466 21.7095 15.7153 21.4598 15.797C21.2049 15.8804 20.8696 16.047 20.3719 16.2958L20.25 16.3568V17.0582C20.25 17.0723 20.25 17.0864 20.25 17.1005V17.6495C20.25 17.6636 20.25 17.6777 20.25 17.6918V18.3932Z" fill="#111111" stroke="black" stroke-width="0.5"/>
</svg>
