<svg width="25" height="24" viewBox="0 0 25 24" fill="none" xmlns="http://www.w3.org/2000/svg">
  <path fill-rule="evenodd" clip-rule="evenodd" d="M4.46393 4.69434V18.6943C4.46393 20.3512 5.80707 21.6943 7.46393 21.6943H17.4639C19.1208 21.6943 20.4639 20.3512 20.4639 18.6943V8.69434C20.4639 7.03748 19.1208 5.69434 17.4639 5.69434H5.46393C4.91164 5.69434 4.46393 5.24662 4.46393 4.69434ZM7.71393 11.6943C7.71393 11.2801 8.04971 10.9443 8.46393 10.9443H16.4639C16.8781 10.9443 17.2139 11.2801 17.2139 11.6943C17.2139 12.1085 16.8781 12.4443 16.4639 12.4443H8.46393C8.04971 12.4443 7.71393 12.1085 7.71393 11.6943ZM7.71393 15.1943C7.71393 14.7801 8.04971 14.4443 8.46393 14.4443H13.9639C14.3781 14.4443 14.7139 14.7801 14.7139 15.1943C14.7139 15.6085 14.3781 15.9443 13.9639 15.9443H8.46393C8.04971 15.9443 7.71393 15.6085 7.71393 15.1943Z" fill="currentColor"/>
  <path opacity="0.5" d="M18.4639 4.00038V5.86504C18.1511 5.75449 17.8146 5.69434 17.4639 5.69434H5.46393C4.91164 5.69434 4.46393 5.24662 4.46393 4.69434V4.62329C4.46393 4.09027 4.85586 3.63837 5.38352 3.56299L16.1811 2.02048C17.386 1.84835 18.4639 2.78328 18.4639 4.00038Z" fill="currentColor"/>
</svg>
