<svg width="21" height="22" viewBox="0 0 21 22" fill="none" xmlns="http://www.w3.org/2000/svg">
<path fill-rule="evenodd" clip-rule="evenodd" d="M8.94358 0.25H11.0564C12.8942 0.249984 14.3498 0.249972 15.489 0.403135C16.6614 0.560763 17.6104 0.89288 18.3588 1.64124C18.6516 1.93414 18.6516 2.40901 18.3588 2.7019C18.0659 2.9948 17.591 2.9948 17.2981 2.7019C16.8749 2.27869 16.2952 2.02502 15.2892 1.88976C14.2615 1.75159 12.9068 1.75 11 1.75H9C7.09318 1.75 5.73851 1.75159 4.71085 1.88976C3.70476 2.02502 3.12511 2.27869 2.7019 2.7019C2.27869 3.12511 2.02502 3.70476 1.88976 4.71085C1.75159 5.73851 1.75 7.09318 1.75 9V13C1.75 14.9068 1.75159 16.2615 1.88976 17.2892C2.02502 18.2952 2.27869 18.8749 2.7019 19.2981C3.12511 19.7213 3.70476 19.975 4.71085 20.1102C5.73851 20.2484 7.09318 20.25 9 20.25H11C12.9068 20.25 14.2615 20.2484 15.2892 20.1102C16.2952 19.975 16.8749 19.7213 17.2981 19.2981C17.994 18.6022 18.2048 17.5208 18.2414 14.9892C18.2474 14.575 18.588 14.2441 19.0022 14.2501C19.4163 14.2561 19.7472 14.5967 19.7412 15.0108C19.7061 17.4383 19.549 19.1685 18.3588 20.3588C17.6104 21.1071 16.6614 21.4392 15.489 21.5969C14.3498 21.75 12.8942 21.75 11.0564 21.75H8.94359C7.10583 21.75 5.65019 21.75 4.51098 21.5969C3.33856 21.4392 2.38961 21.1071 1.64124 20.3588C0.89288 19.6104 0.560763 18.6614 0.403135 17.489C0.249972 16.3498 0.249984 14.8942 0.25 13.0564V8.94358C0.249984 7.10582 0.249972 5.65019 0.403135 4.51098C0.560763 3.33856 0.89288 2.38961 1.64124 1.64124C2.38961 0.89288 3.33856 0.560763 4.51098 0.403135C5.65019 0.249972 7.10582 0.249984 8.94358 0.25ZM16.1131 6.04556C17.1739 4.98481 18.8937 4.98481 19.9544 6.04556C21.0152 7.1063 21.0152 8.82611 19.9544 9.88686L15.1991 14.6422C14.9404 14.901 14.7654 15.076 14.5693 15.2289C14.3387 15.4088 14.0892 15.563 13.8252 15.6889C13.6007 15.7958 13.3659 15.8741 13.0187 15.9897L10.9351 16.6843C10.4751 16.8376 9.96787 16.7179 9.62499 16.375C9.2821 16.0321 9.16237 15.5249 9.31571 15.0649L9.99627 13.0232C10.001 13.0091 10.0056 12.9951 10.0102 12.9813C10.1259 12.6342 10.2042 12.3993 10.3111 12.1748C10.437 11.9108 10.5912 11.6613 10.7711 11.4307C10.924 11.2346 11.099 11.0596 11.3578 10.8009C11.3681 10.7906 11.3785 10.7802 11.3891 10.7696L16.1131 6.04556ZM18.8938 7.10622C18.4188 6.63126 17.6488 6.63126 17.1738 7.10622L16.992 7.288C17.0019 7.32149 17.0132 7.3571 17.0262 7.39452C17.1202 7.66565 17.2988 8.02427 17.6372 8.36276C17.9757 8.70125 18.3343 8.87975 18.6055 8.97382C18.6429 8.9868 18.6785 8.99812 18.712 9.00798L18.8938 8.8262C19.3687 8.35124 19.3687 7.58118 18.8938 7.10622ZM17.5664 10.1536C17.2485 9.98658 16.9053 9.75214 16.5766 9.42342C16.2479 9.0947 16.0134 8.75146 15.8464 8.43357L12.4497 11.8303C12.1487 12.1314 12.043 12.2388 11.9538 12.3532C11.841 12.4979 11.7442 12.6545 11.6652 12.8202C11.6028 12.9511 11.5539 13.0936 11.4193 13.4976L11.019 14.6985L11.3015 14.981L12.5024 14.5807C12.9064 14.4461 13.0489 14.3972 13.1798 14.3348C13.3455 14.2558 13.5021 14.159 13.6468 14.0462C13.7612 13.957 13.8686 13.8513 14.1697 13.5503L17.5664 10.1536ZM5.25 8C5.25 7.58579 5.58579 7.25 6 7.25H12.5C12.9142 7.25 13.25 7.58579 13.25 8C13.25 8.41421 12.9142 8.75 12.5 8.75H6C5.58579 8.75 5.25 8.41421 5.25 8ZM5.25 12C5.25 11.5858 5.58579 11.25 6 11.25H8.5C8.91422 11.25 9.25 11.5858 9.25 12C9.25 12.4142 8.91422 12.75 8.5 12.75H6C5.58579 12.75 5.25 12.4142 5.25 12ZM5.25 16C5.25 15.5858 5.58579 15.25 6 15.25H7.5C7.91421 15.25 8.25 15.5858 8.25 16C8.25 16.4142 7.91421 16.75 7.5 16.75H6C5.58579 16.75 5.25 16.4142 5.25 16Z" fill="#0FB4C3"/>
</svg>
