<svg width="21" height="21" viewBox="0 0 21 21" fill="none" xmlns="http://www.w3.org/2000/svg">
<path opacity="0.4" d="M1.05359 13.5625C1.05359 13.5625 1.19376 15.2781 1.22633 15.819C1.26977 16.5445 1.5501 17.355 2.01799 17.9176C2.67837 18.7152 3.45621 18.9965 4.49464 18.9985C5.71569 19.0005 14.5947 19.0005 15.8158 18.9985C16.8542 18.9965 17.6321 18.7152 18.2924 17.9176C18.7603 17.355 19.0407 16.5445 19.0851 15.819C19.1167 15.2781 19.2568 13.5625 19.2568 13.5625" stroke="#111111" stroke-width="1.3" stroke-linecap="round" stroke-linejoin="round"/>
<path opacity="0.4" d="M1.05359 13.5625C1.05359 13.5625 1.19376 15.2781 1.22633 15.819C1.26977 16.5445 1.5501 17.355 2.01799 17.9176C2.67837 18.7152 3.45621 18.9965 4.49464 18.9985C5.71569 19.0005 14.5947 19.0005 15.8158 18.9985C16.8542 18.9965 17.6321 18.7152 18.2924 17.9176C18.7603 17.355 19.0407 16.5445 19.0851 15.819C19.1167 15.2781 19.2568 13.5625 19.2568 13.5625" stroke="#111111" stroke-width="1.3" stroke-linecap="round" stroke-linejoin="round"/>
<path opacity="0.4" d="M1.05359 13.5625C1.05359 13.5625 1.19376 15.2781 1.22633 15.819C1.26977 16.5445 1.5501 17.355 2.01799 17.9176C2.67837 18.7152 3.45621 18.9965 4.49464 18.9985C5.71569 19.0005 14.5947 19.0005 15.8158 18.9985C16.8542 18.9965 17.6321 18.7152 18.2924 17.9176C18.7603 17.355 19.0407 16.5445 19.0851 15.819C19.1167 15.2781 19.2568 13.5625 19.2568 13.5625" stroke="#111111" stroke-width="1.3" stroke-linecap="round" stroke-linejoin="round"/>
<path opacity="0.4" d="M1.05359 13.5625C1.05359 13.5625 1.19376 15.2781 1.22633 15.819C1.26977 16.5445 1.5501 17.355 2.01799 17.9176C2.67837 18.7152 3.45621 18.9965 4.49464 18.9985C5.71569 19.0005 14.5947 19.0005 15.8158 18.9985C16.8542 18.9965 17.6321 18.7152 18.2924 17.9176C18.7603 17.355 19.0407 16.5445 19.0851 15.819C19.1167 15.2781 19.2568 13.5625 19.2568 13.5625" stroke="#111111" stroke-width="1.3" stroke-linecap="round" stroke-linejoin="round"/>
<path opacity="0.4" d="M1.05359 13.5625C1.05359 13.5625 1.19376 15.2781 1.22633 15.819C1.26977 16.5445 1.5501 17.355 2.01799 17.9176C2.67837 18.7152 3.45621 18.9965 4.49464 18.9985C5.71569 19.0005 14.5947 19.0005 15.8158 18.9985C16.8542 18.9965 17.6321 18.7152 18.2924 17.9176C18.7603 17.355 19.0407 16.5445 19.0851 15.819C19.1167 15.2781 19.2568 13.5625 19.2568 13.5625" stroke="#111111" stroke-width="1.3" stroke-linecap="round" stroke-linejoin="round"/>
<path opacity="0.4" d="M1.05359 13.5625C1.05359 13.5625 1.19376 15.2781 1.22633 15.819C1.26977 16.5445 1.5501 17.355 2.01799 17.9176C2.67837 18.7152 3.45621 18.9965 4.49464 18.9985C5.71569 19.0005 14.5947 19.0005 15.8158 18.9985C16.8542 18.9965 17.6321 18.7152 18.2924 17.9176C18.7603 17.355 19.0407 16.5445 19.0851 15.819C19.1167 15.2781 19.2568 13.5625 19.2568 13.5625" stroke="#111111" stroke-width="1.3" stroke-linecap="round" stroke-linejoin="round"/>
<path opacity="0.4" d="M1.05359 13.5625C1.05359 13.5625 1.19376 15.2781 1.22633 15.819C1.26977 16.5445 1.5501 17.355 2.01799 17.9176C2.67837 18.7152 3.45621 18.9965 4.49464 18.9985C5.71569 19.0005 14.5947 19.0005 15.8158 18.9985C16.8542 18.9965 17.6321 18.7152 18.2924 17.9176C18.7603 17.355 19.0407 16.5445 19.0851 15.819C19.1167 15.2781 19.2568 13.5625 19.2568 13.5625" stroke="#111111" stroke-width="1.3" stroke-linecap="round" stroke-linejoin="round"/>
<path opacity="0.4" d="M1.05359 13.5625C1.05359 13.5625 1.19376 15.2781 1.22633 15.819C1.26977 16.5445 1.5501 17.355 2.01799 17.9176C2.67837 18.7152 3.45621 18.9965 4.49464 18.9985C5.71569 19.0005 14.5947 19.0005 15.8158 18.9985C16.8542 18.9965 17.6321 18.7152 18.2924 17.9176C18.7603 17.355 19.0407 16.5445 19.0851 15.819C19.1167 15.2781 19.2568 13.5625 19.2568 13.5625" stroke="#111111" stroke-width="1.3" stroke-linecap="round" stroke-linejoin="round"/>
<path d="M6.67206 3.54575V3.17953C6.67206 1.97526 7.64732 1 8.85162 1H11.4003C12.6036 1 13.5799 1.97526 13.5799 3.17953L13.5808 3.54575" stroke="#111111" stroke-width="1.3" stroke-linecap="round" stroke-linejoin="round"/>
<path d="M10.126 14.748V13.4707" stroke="#111111" stroke-width="2" stroke-linecap="round" stroke-linejoin="round"/>
<path fill-rule="evenodd" clip-rule="evenodd" d="M1 6.56545V9.9878C2.89327 11.2365 5.16164 12.1111 7.65112 12.4575C7.94923 11.3707 8.92945 10.5741 10.1209 10.5741C11.2936 10.5741 12.2935 11.3707 12.5719 12.4674C15.0712 12.1209 17.3485 11.2464 19.2516 9.9878V6.56545C19.2516 4.89329 17.9062 3.54688 16.234 3.54688H4.02746C2.3553 3.54688 1 4.89329 1 6.56545Z" stroke="#111111" stroke-width="1.3" stroke-linecap="round" stroke-linejoin="round"/>
<rect x="7" y="8" width="14" height="13" rx="2" fill="#F8F8FF"/>
<path d="M14 17.375C14 17.5821 14.1679 17.75 14.375 17.75C14.5821 17.75 14.75 17.5821 14.75 17.375V15.875C14.75 15.6679 14.5821 15.5 14.375 15.5C14.1679 15.5 14 15.6679 14 15.875V17.375Z" fill="#111111"/>
<path fill-rule="evenodd" clip-rule="evenodd" d="M14.375 9C14.0209 9 13.6993 9.10141 13.3503 9.27112C13.0129 9.43517 12.6232 9.67704 12.1364 9.97916L11.1031 10.6204C10.6425 10.9063 10.2737 11.1352 9.98945 11.3529C9.69507 11.5783 9.46897 11.8079 9.30566 12.1063C9.14268 12.4041 9.06928 12.7209 9.03409 13.0954C8.99999 13.4583 9 13.9021 9 14.4586V15.2649C8.99999 16.2169 8.99999 16.9683 9.07635 17.5558C9.15469 18.1585 9.31928 18.645 9.69118 19.0297C10.0648 19.4162 10.5402 19.5888 11.1288 19.6707C11.6992 19.75 12.4278 19.75 13.3459 19.75H15.404C16.3222 19.75 17.0508 19.75 17.6212 19.6707C18.2098 19.5888 18.6852 19.4162 19.0588 19.0297C19.4307 18.645 19.5953 18.1585 19.6736 17.5558C19.75 16.9683 19.75 16.2169 19.75 15.2649V14.4586C19.75 13.9021 19.75 13.4583 19.7159 13.0954C19.6807 12.7209 19.6073 12.4041 19.4443 12.1063C19.281 11.8079 19.0549 11.5783 18.7605 11.3529C18.4763 11.1352 18.1075 10.9063 17.6469 10.6205L16.6136 9.97916C16.1268 9.67704 15.7371 9.43517 15.3997 9.27112C15.0507 9.10141 14.7291 9 14.375 9ZM12.5148 10.6271C13.0226 10.3119 13.3797 10.0908 13.6783 9.9456C13.9691 9.80416 14.1751 9.75 14.375 9.75C14.5749 9.75 14.7809 9.80416 15.0717 9.9456C15.3703 10.0908 15.7274 10.3119 16.2352 10.6271L17.2352 11.2477C17.7157 11.5458 18.053 11.7557 18.3045 11.9483C18.5493 12.1358 18.6902 12.2905 18.7865 12.4664C18.8831 12.6429 18.9395 12.8493 18.9692 13.1655C18.9996 13.4893 19 13.8979 19 14.477V15.2375C19 16.223 18.9993 16.9256 18.9299 17.4591C18.8618 17.9832 18.7335 18.2872 18.5196 18.5084C18.3074 18.7279 18.0186 18.8582 17.5179 18.9278C17.0051 18.9991 16.3288 19 15.375 19H13.375C12.4212 19 11.7449 18.9991 11.2321 18.9278C10.7314 18.8582 10.4426 18.7279 10.2304 18.5084C10.0165 18.2872 9.88821 17.9832 9.8201 17.4591C9.75075 16.9256 9.75 16.223 9.75 15.2375V14.477C9.75 13.8979 9.75038 13.4893 9.78081 13.1655C9.81052 12.8493 9.86692 12.6429 9.96355 12.4664C10.0598 12.2905 10.2007 12.1358 10.4455 11.9483C10.697 11.7557 11.0343 11.5458 11.5148 11.2477L12.5148 10.6271Z" fill="#111111"/>
<path d="M14 17.375C14 17.5821 14.1679 17.75 14.375 17.75C14.5821 17.75 14.75 17.5821 14.75 17.375V15.875C14.75 15.6679 14.5821 15.5 14.375 15.5C14.1679 15.5 14 15.6679 14 15.875V17.375Z" stroke="black" stroke-width="0.7"/>
<path fill-rule="evenodd" clip-rule="evenodd" d="M14.375 9C14.0209 9 13.6993 9.10141 13.3503 9.27112C13.0129 9.43517 12.6232 9.67704 12.1364 9.97916L11.1031 10.6204C10.6425 10.9063 10.2737 11.1352 9.98945 11.3529C9.69507 11.5783 9.46897 11.8079 9.30566 12.1063C9.14268 12.4041 9.06928 12.7209 9.03409 13.0954C8.99999 13.4583 9 13.9021 9 14.4586V15.2649C8.99999 16.2169 8.99999 16.9683 9.07635 17.5558C9.15469 18.1585 9.31928 18.645 9.69118 19.0297C10.0648 19.4162 10.5402 19.5888 11.1288 19.6707C11.6992 19.75 12.4278 19.75 13.3459 19.75H15.404C16.3222 19.75 17.0508 19.75 17.6212 19.6707C18.2098 19.5888 18.6852 19.4162 19.0588 19.0297C19.4307 18.645 19.5953 18.1585 19.6736 17.5558C19.75 16.9683 19.75 16.2169 19.75 15.2649V14.4586C19.75 13.9021 19.75 13.4583 19.7159 13.0954C19.6807 12.7209 19.6073 12.4041 19.4443 12.1063C19.281 11.8079 19.0549 11.5783 18.7605 11.3529C18.4763 11.1352 18.1075 10.9063 17.6469 10.6205L16.6136 9.97916C16.1268 9.67704 15.7371 9.43517 15.3997 9.27112C15.0507 9.10141 14.7291 9 14.375 9ZM12.5148 10.6271C13.0226 10.3119 13.3797 10.0908 13.6783 9.9456C13.9691 9.80416 14.1751 9.75 14.375 9.75C14.5749 9.75 14.7809 9.80416 15.0717 9.9456C15.3703 10.0908 15.7274 10.3119 16.2352 10.6271L17.2352 11.2477C17.7157 11.5458 18.053 11.7557 18.3045 11.9483C18.5493 12.1358 18.6902 12.2905 18.7865 12.4664C18.8831 12.6429 18.9395 12.8493 18.9692 13.1655C18.9996 13.4893 19 13.8979 19 14.477V15.2375C19 16.223 18.9993 16.9256 18.9299 17.4591C18.8618 17.9832 18.7335 18.2872 18.5196 18.5084C18.3074 18.7279 18.0186 18.8582 17.5179 18.9278C17.0051 18.9991 16.3288 19 15.375 19H13.375C12.4212 19 11.7449 18.9991 11.2321 18.9278C10.7314 18.8582 10.4426 18.7279 10.2304 18.5084C10.0165 18.2872 9.88821 17.9832 9.8201 17.4591C9.75075 16.9256 9.75 16.223 9.75 15.2375V14.477C9.75 13.8979 9.75038 13.4893 9.78081 13.1655C9.81052 12.8493 9.86692 12.6429 9.96355 12.4664C10.0598 12.2905 10.2007 12.1358 10.4455 11.9483C10.697 11.7557 11.0343 11.5458 11.5148 11.2477L12.5148 10.6271Z" stroke="black" stroke-width="0.7"/>
</svg>
