<svg width="24" height="24" viewBox="0 0 24 24" fill="none" xmlns="http://www.w3.org/2000/svg">
<g clip-path="url(#clip0_114_214)">
<path d="M18.12 12.3408L16.968 9.48959C17.0544 9.45121 17.1456 9.42725 17.232 9.38881C17.472 9.27842 17.5825 8.99518 17.472 8.75518C17.3665 8.51037 17.0832 8.39998 16.8384 8.51037C16.7616 8.544 16.6848 8.56803 16.608 8.5968L15.3744 5.53439C15.912 5.1264 16.2625 4.48803 16.2625 3.76322C16.2625 2.70725 15.5184 1.824 14.5296 1.60322V0.95998C14.5296 0.696014 14.3184 0.47998 14.0496 0.47998C13.7856 0.47998 13.5696 0.696014 13.5696 0.95998V1.60322C12.5808 1.824 11.8416 2.70725 11.8416 3.76322C11.8416 4.48803 12.192 5.12641 12.7296 5.53439L11.4912 8.6016C11.4144 8.56802 11.3377 8.544 11.2608 8.51037C11.0208 8.39998 10.7377 8.51037 10.6273 8.75518C10.5216 8.99518 10.6273 9.27842 10.872 9.38881C10.9584 9.42725 11.0448 9.45601 11.136 9.48959L9.99364 12.3264C9.89286 12.5712 10.0129 12.8496 10.2577 12.9504C10.3152 12.9744 10.3777 12.984 10.4352 12.984C10.6273 12.984 10.8048 12.8688 10.8816 12.6816L12.0481 9.79205C12.5473 9.92641 13.056 10.008 13.5696 10.0416V10.2384C13.5696 10.5024 13.7856 10.7184 14.0496 10.7184C14.3184 10.7184 14.5296 10.5024 14.5296 10.2384V10.0416C15.0481 10.008 15.5569 9.92641 16.056 9.79205L17.2273 12.7008C17.304 12.888 17.4816 13.0032 17.6736 13.0032C17.7312 13.0032 17.7936 12.9888 17.8512 12.9648C18.096 12.8688 18.216 12.5856 18.12 12.3408ZM14.5296 9.07679V8.74082C14.5296 8.47679 14.3184 8.26082 14.0496 8.26082C13.7856 8.26082 13.5696 8.47679 13.5696 8.74082V9.07679C13.1808 9.05283 12.792 8.99037 12.408 8.89439L13.6032 5.93764C13.7473 5.96641 13.896 5.98563 14.0496 5.98563C14.208 5.98563 14.3569 5.96641 14.5008 5.93764L15.6912 8.89439C15.312 8.99037 14.9232 9.05283 14.5296 9.07679ZM5.80641 7.01283H1.88156C1.10883 7.01283 0.48 7.6416 0.48 8.4192V12.58C3.25301 12.0735 5.41922 9.82545 5.80641 7.01283Z" fill="white"/>
<path d="M22.1184 7.0127H17.0065L17.208 7.51666C17.7073 7.57906 18.1392 7.89588 18.3504 8.36147C18.576 8.87504 18.48 9.45108 18.1536 9.85907L19.008 11.9807C19.3056 12.7198 18.9456 13.5598 18.2112 13.8575C17.4058 14.1621 16.6212 13.7595 16.3392 13.0607L15.4656 10.9007C15.4177 10.9102 15.3696 10.915 15.3169 10.9247C15.072 11.3711 14.5969 11.6783 14.0496 11.6783C13.5073 11.6783 13.032 11.3711 12.7873 10.9247C12.7344 10.915 12.6865 10.9102 12.6336 10.9007L11.7744 13.0415C11.479 13.7737 10.6511 14.1341 9.90246 13.8431C9.16324 13.5407 8.80324 12.7007 9.10078 11.9663L9.95039 9.85907C9.61922 9.45108 9.52324 8.87504 9.75363 8.36147C9.96 7.89588 10.3969 7.57907 10.8912 7.51666L11.0929 7.0127H6.77766C6.37441 10.3535 3.78246 13.0271 0.48 13.5502V22.1183C0.48 22.8911 1.10883 23.5198 1.88156 23.5198H22.1184C22.8912 23.5198 23.52 22.8911 23.52 22.1183V8.41906C23.52 7.64146 22.8912 7.0127 22.1184 7.0127ZM19.704 21.2015H4.29598C4.02727 21.2015 3.81598 20.9855 3.81598 20.7215C3.81598 20.4575 4.02727 20.2415 4.29598 20.2415H19.704C19.968 20.2415 20.184 20.4575 20.184 20.7215C20.184 20.9855 19.968 21.2015 19.704 21.2015Z" fill="white"/>
</g>
<defs>
<clipPath id="clip0_114_214">
<rect width="24" height="24" fill="white"/>
</clipPath>
</defs>
</svg>
