<svg width="24" height="24" viewBox="0 0 24 24" fill="none" xmlns="http://www.w3.org/2000/svg">
<path d="M9 1.5C7.34314 1.5 6 2.84314 6 4.5V7.5H8.25C10.3211 7.5 12 9.17894 12 11.25V16.5H15V18H12V19.5H17.25C17.6642 19.5 18 19.1642 18 18.75C18 18.3358 17.6642 18 17.25 18H16.5V16.5H19.5C21.1569 16.5 22.5 15.1569 22.5 13.5V4.5C22.5 2.84314 21.1569 1.5 19.5 1.5H9Z" fill="white"/>
<path d="M3.75 9C2.50735 9 1.5 10.0074 1.5 11.25V20.25C1.5 21.4926 2.50735 22.5 3.75 22.5H8.25C9.49264 22.5 10.5 21.4926 10.5 20.25V11.25C10.5 10.0074 9.49264 9 8.25 9H3.75ZM4.5 18.75C4.5 18.3358 4.83579 18 5.25 18H6.75C7.16421 18 7.5 18.3358 7.5 18.75C7.5 19.1642 7.16421 19.5 6.75 19.5H5.25C4.83579 19.5 4.5 19.1642 4.5 18.75Z" fill="white"/>
</svg>
