<svg width="33" height="32" viewBox="0 0 33 32" fill="none" xmlns="http://www.w3.org/2000/svg">
<path d="M23.9708 15.875L23.9825 5.4375H20.5402L20.5517 15.875H23.9708Z" fill="#F8F8FF"/>
<path d="M22.2613 19.5337C22.7151 19.5297 23.1491 19.3468 23.4688 19.0247C23.7886 18.7026 23.9682 18.2672 23.9688 17.8134L23.9699 16.75H20.5527L20.5539 17.813C20.5544 18.2669 20.734 18.7022 21.0538 19.0244C21.3735 19.3466 21.8074 19.5296 22.2613 19.5337ZM30 27.1529C30 25.8796 28.9633 24.8125 27.6904 24.8125H25V29.4375H27.6949C27.9974 29.4413 28.2976 29.3847 28.578 29.2711C28.8584 29.1574 29.1132 28.989 29.3277 28.7756C29.5428 28.5605 29.7131 28.3049 29.8288 28.0236C29.9446 27.7423 30.0035 27.4409 30.0022 27.1367L30.0144 27.125H30V27.1529Z" fill="#F8F8FF"/>
<path d="M22.2612 2.50635L20.9124 4.56241H23.6101L22.2612 2.50635Z" fill="#F8F8FF"/>
<path d="M16.125 2.5625H12.125V5.625H12.6875C12.8035 5.625 12.9148 5.67109 12.9969 5.75314C13.0789 5.83519 13.125 5.94647 13.125 6.0625C13.125 6.17853 13.0789 6.28981 12.9969 6.37186C12.9148 6.45391 12.8035 6.5 12.6875 6.5H12.125V8.125H12.6875C12.8035 8.125 12.9148 8.17109 12.9969 8.25314C13.0789 8.33519 13.125 8.44647 13.125 8.5625C13.125 8.67853 13.0789 8.78981 12.9969 8.87186C12.9148 8.95391 12.8035 9 12.6875 9H12.125V10.625H12.6875C12.8035 10.625 12.9148 10.6711 12.9969 10.7531C13.0789 10.8352 13.125 10.9465 13.125 11.0625C13.125 11.1785 13.0789 11.2898 12.9969 11.3719C12.9148 11.4539 12.8035 11.5 12.6875 11.5H12.125V13.125H12.6875C12.8035 13.125 12.9148 13.1711 12.9969 13.2531C13.0789 13.3352 13.125 13.4465 13.125 13.5625C13.125 13.6785 13.0789 13.7898 12.9969 13.8719C12.9148 13.9539 12.8035 14 12.6875 14H12.125V15.625H12.6875C12.8035 15.625 12.9148 15.6711 12.9969 15.7531C13.0789 15.8352 13.125 15.9465 13.125 16.0625C13.125 16.1785 13.0789 16.2898 12.9969 16.3719C12.9148 16.4539 12.8035 16.5 12.6875 16.5H12.125V19.375H16.125V2.5625Z" fill="#F8F8FF"/>
<path d="M27.6911 23.9373C28.1259 23.9413 28.5554 24.0346 28.9526 24.2117C29.3498 24.3887 29.7064 24.6457 30 24.9665V10.4742C30 9.26922 29.0353 8.28891 27.8484 8.28891L24.8538 8.26903L24.8427 17.8297C24.8427 18.515 24.5705 19.1722 24.0859 19.6568C23.6013 20.1414 22.9441 20.4136 22.2588 20.4136C21.5735 20.4136 20.9163 20.1414 20.4317 19.6568C19.9472 19.1722 19.6749 18.515 19.6749 17.8297L19.6604 8.23459L17 8.21703V19.8561C17 20.0977 16.8197 20.2498 16.5781 20.2498H11.7031C11.4615 20.2498 11.25 20.0978 11.25 19.8561V16.2048C11.25 16.1683 11.2344 16.1298 11.2344 16.0904C11.2344 16.051 11.25 16.0125 11.25 15.976V13.7048C11.25 13.6683 11.2344 13.6298 11.2344 13.5904C11.2344 13.551 11.25 13.5125 11.25 13.476V11.2048C11.25 11.1683 11.2344 11.1298 11.2344 11.0904C11.2344 11.051 11.25 11.0125 11.25 10.976V8.70478C11.25 8.66828 11.2344 8.62978 11.2344 8.59041C11.2344 8.55103 11.25 8.51253 11.25 8.47603V8.17891L8.5 8.16016V16.9977C8.5 17.2393 8.275 17.437 8.03325 17.437H6.2615C5.39712 17.4372 4.56817 17.7805 3.95667 18.3914C3.34516 19.0023 3.00109 19.831 3 20.6953V20.7027C2.99989 21.1294 3.08425 21.552 3.24821 21.946C3.41217 22.34 3.6525 22.6976 3.95534 22.9983C4.25817 23.299 4.61753 23.5368 5.01269 23.698C5.40785 23.8591 5.831 23.9405 6.25775 23.9373H27.6911Z" fill="#F8F8FF"/>
<path d="M6.26109 16.5625H7.62503V3.75H6.25734C5.82742 3.75326 5.4024 3.84161 5.00679 4.00993C4.61118 4.17826 4.25281 4.42324 3.95234 4.73075C3.33901 5.35116 2.99657 6.18936 3.00003 7.06175V18.1704C3.38587 17.6724 3.88003 17.2689 4.44506 16.9903C5.01008 16.7117 5.63112 16.5654 6.26109 16.5625Z" fill="#F8F8FF"/>
</svg>
