<svg width="23" height="22" viewBox="0 0 23 22" fill="none" xmlns="http://www.w3.org/2000/svg">
<path d="M22.292 9.29852C22.118 8.31193 21.5996 7.41386 20.8321 6.76988C20.3967 6.40451 20.1025 5.89505 20.0038 5.33529C19.8298 4.34871 19.3112 3.45064 18.5439 2.80666C17.7764 2.16268 16.802 1.80797 15.8002 1.80797C15.2318 1.80797 14.6789 1.60674 14.2435 1.24136C13.4759 0.597382 12.5016 0.242676 11.4997 0.242676C10.4979 0.242676 9.52354 0.597382 8.75602 1.24136C8.3206 1.60674 7.76784 1.80797 7.19932 1.80797C6.19745 1.80797 5.22312 2.16268 4.4556 2.80666C3.68808 3.45064 3.16971 4.34871 2.9957 5.33529C2.89699 5.89505 2.60294 6.40451 2.16736 6.76988C1.39984 7.41386 0.881471 8.31193 0.707461 9.29852C0.533451 10.2851 0.713511 11.3064 1.21453 12.1739C1.4987 12.6662 1.60091 13.2455 1.50221 13.8053C1.3282 14.7918 1.50826 15.8131 2.00927 16.6806C2.51013 17.5483 3.30456 18.2147 4.24593 18.5575C4.78006 18.7519 5.23076 19.13 5.51494 19.6223C6.0158 20.4899 6.81023 21.1563 7.7516 21.4991C8.69297 21.8417 9.73003 21.8417 10.6714 21.4991C11.2055 21.3047 11.7938 21.3047 12.3279 21.4991C12.7987 21.6704 13.2932 21.7561 13.7878 21.7561C14.2825 21.7561 14.777 21.6704 15.2477 21.4991C16.1891 21.1565 16.9835 20.4899 17.4844 19.6223C17.7686 19.13 18.2193 18.7519 18.7534 18.5575C19.6948 18.2149 20.4892 17.5483 20.99 16.6806C21.4909 15.813 21.671 14.7918 21.4971 13.8053C21.3984 13.2455 21.5006 12.6662 21.7848 12.1739C22.2857 11.3062 22.4657 10.2851 22.2919 9.29852H22.292ZM15.8771 9.66246L11.2968 14.1881C11.0887 14.3937 10.8064 14.5093 10.5122 14.5093C10.218 14.5093 9.93572 14.3937 9.72764 14.1881L7.57329 12.0594C7.13994 11.6313 7.13994 10.937 7.57329 10.5089C8.00665 10.0808 8.70921 10.0808 9.14257 10.5089L10.5124 11.8623L14.3081 8.11181C14.7415 7.68371 15.444 7.68371 15.8774 8.11181C16.3107 8.53991 16.3107 9.2342 15.8774 9.6623L15.8771 9.66246Z" fill="#F8F8FF"/>
</svg>
