<svg width="24" height="19" viewBox="0 0 24 19" fill="none" xmlns="http://www.w3.org/2000/svg">
<path d="M23.4693 2.62803L23.4993 2.84034C23.0093 0.957734 21.5103 0.613276 21.4103 0.5472C18.9763 -0.168797 5.11229 -0.195877 2.61129 0.5472C0.896294 1.08555 0.581294 2.73202 0.522294 2.84034C-0.176706 6.79512 -0.181706 11.5471 0.553294 15.7814L0.522294 15.5669C1.01229 17.4495 2.51129 17.794 2.61129 17.86C5.07829 18.588 18.9063 18.5901 21.4103 17.86C23.1253 17.3228 23.4403 15.6752 23.4993 15.5669C24.1523 11.8039 24.1953 6.89802 23.4693 2.62803ZM9.60829 13.1589V5.25914L15.8743 9.215L9.60829 13.1589Z" fill="#FF0000"/>
</svg>
